<svg viewBox="32.18585611720149 20.47 223.6851360941233 247.05999999999997" xmlns="http://www.w3.org/2000/svg"
 width="2113" height="2500">


 <path 
    d="M252.71 93.61a21.67 21.67 0 0 0-2.65-10.87 20.74 20.74 0 0 0-7.87-7.67Q198.77
     50 155.32 25c-7.8-4.51-15.36-4.35-23.11.23C120.69 32 63 65.09 45.81 75.06c-7.08 
     4.1-10.52 10.38-10.52 18.54v100.8a21.77 21.77 0 0 0 2.55 10.66 20.63 20.63 0 0 0 8 
     7.88c17.19 10 74.89 43.05 86.41 49.85 7.75 4.58 15.31 4.74 23.12.23q43.41-25.08 
     86.87-50.09a20.63 20.63 0 0 0 8-7.88 21.77 21.77 0 0 0 2.55-10.66V93.61z"
      fill="url(#SVG1)"/>
    
<path 
    d="M252.73 194.4a21.72 21.72 0 0 1-2.55 10.66 18.58 18.58 0 0 1-1.45 2.24L144 144l98.19-68.93a20.72 20.72 0 0 1 7.86 7.67 21.57 21.57 0 0 1 2.66 10.87c.02 33.6.02 100.79.02 100.79z" 
    fill="#310"/>
    
<path 
    d="M250.05 82.74 L37.81 205.06 a21.75 21.75 0 0 1-2.53-10.65 V93.6c0-8.16 3.45-14.44 10.52-18.54 C63 65.09 120.69 32 132.22 25.21c7.73-4.58 15.3-4.74 23.1-.23q43.41 25.08 86.87 50.09a20.72 20.72 0 0 1 7.86 7.67z" 
    fill="url(#SVG2)"/>

<linearGradient id="SVG1">
	<stop  offset="0" style="stop-color:#f10"/>
	<stop  offset="1" style="stop-color:#f50"/>
</linearGradient>


<linearGradient id="SVG2">
	<stop  offset="0" style="stop-color:#f505"/>
	<stop  offset="1" style="stop-color:#f90"/>
</linearGradient>

<path 
    d="M127 89 l 5 75 c 0 15 20 15 20 0 l 5 -75 c 0 -20 -30 -20 -30 0" 
    fill="#fff"/>

<circle 
    cx="142" cy="200" r="10"
    fill="#fff"/>



</svg>